<?xml version="1.0" encoding="iso-8859-1"?>
<!-- Generator: Adobe Illustrator 19.0.0, SVG Export Plug-In . SVG Version: 6.00 Build 0)  -->
<svg version="1.1" id="Layer_1" xmlns="http://www.w3.org/2000/svg" xmlns:xlink="http://www.w3.org/1999/xlink" x="0px" y="0px"
	 viewBox="0 0 512 512" style="enable-background:new 0 0 512 512;" xml:space="preserve">
<g>
	<path style="fill:#C3FBE4;" d="M268.599,107.656L24.88,75.279c-12.609,0-23.546,9.376-24.764,21.927
		c-1.4,14.438,10.038,26.711,24.203,26.711l23.365,37.848V359.66c0,42.383,34.678,77.061,77.061,77.061h189.199
		c42.384,0,77.062-34.678,77.062-77.062V123.916l-87.434-11.615"/>
	<path style="fill:#C3FBE4;" d="M511.018,195.439c-5.276-32.67-32.914-59.223-64.289-61.764
		c-16.439-1.335-33.474,4.492-46.771,15.97c-12.565,10.846-20.034,25.155-21.031,40.29c-0.281,4.272,2.952,7.963,7.225,8.245
		c4.261,0.28,7.964-2.954,8.245-7.225c0.723-10.96,6.296-21.461,15.692-29.571c10.176-8.785,23.083-13.247,35.389-12.253
		c24.066,1.949,46.132,23.376,50.235,48.781c3.927,24.317-7.647,51.614-28.8,67.919c-7.63,5.881-16.207,10.42-25.289,15.224
		c-2.682,1.419-5.364,2.838-8.021,4.292c-11.45,6.267-24.406,14.293-33.687,26.297c-10.471,13.542-14.09,30.621-9.445,44.574
		c4.773,14.341,18.849,24.204,32.686,24.203c2.729,0,5.45-0.383,8.087-1.193c4.093-1.256,6.393-5.592,5.137-9.685
		c-1.256-4.093-5.588-6.392-9.685-5.137c-7.998,2.452-18.458-3.903-21.513-13.083c-3.035-9.117-0.352-20.686,7-30.195
		c7.535-9.746,18.82-16.682,28.866-22.18c2.592-1.419,5.208-2.803,7.825-4.188c9.256-4.896,18.829-9.96,27.505-16.649
		C502.303,258.123,515.899,225.673,511.018,195.439z"/>
</g>
<path style="opacity:0.1;fill:#02ACAB;enable-background:new    ;" d="M294.931,285.398
	c-19.566,53.99-49.072,103.704-81.345,151.323h100.359c42.384,0,77.062-34.678,77.062-77.062V123.916l-76.657-10.183
	C323.887,170.891,314.764,230.672,294.931,285.398z"/>
<g>
</g>
<g>
</g>
<g>
</g>
<g>
</g>
<g>
</g>
<g>
</g>
<g>
</g>
<g>
</g>
<g>
</g>
<g>
</g>
<g>
</g>
<g>
</g>
<g>
</g>
<g>
</g>
<g>
</g>
</svg>
